<?xml version="1.0" standalone="no"?>
<!DOCTYPE svg PUBLIC "-//W3C//DTD SVG 20010904//EN"
 "http://www.w3.org/TR/2001/REC-SVG-20010904/DTD/svg10.dtd">
<svg version="1.0" xmlns="http://www.w3.org/2000/svg"
 width="512.000000pt" height="512.000000pt" viewBox="0 0 512.000000 512.000000"
 preserveAspectRatio="xMidYMid meet">
<metadata>
Created by potrace 1.14, written by Peter Selinger 2001-2017
</metadata>
<g transform="translate(0.000000,512.000000) scale(0.100000,-0.100000)"
fill="#000000" stroke="none">
<path d="M2615 4876 c-120 -80 -184 -137 -234 -209 l-32 -47 23 -20 c13 -10
37 -30 53 -44 27 -22 30 -30 30 -79 0 -45 -5 -60 -25 -82 -21 -23 -76 -55 -95
-55 -3 0 -21 24 -40 54 -58 91 -106 115 -165 81 -14 -8 -40 -14 -57 -15 -58 0
-88 47 -118 184 -17 77 -35 108 -35 62 0 -13 -11 -76 -25 -140 -28 -132 -32
-240 -10 -293 15 -34 16 -35 53 -28 74 16 103 11 133 -23 48 -53 50 -126 6
-177 l-22 -26 -49 21 c-77 33 -117 14 -173 -80 -36 -62 -92 -61 -203 5 -30 18
-65 36 -78 40 -20 6 -17 -1 21 -57 24 -35 60 -90 80 -123 60 -100 136 -165
193 -165 10 0 43 27 75 60 60 63 83 71 127 46 29 -16 62 -64 62 -92 0 -14 -15
-31 -41 -49 -54 -38 -64 -59 -64 -137 0 -102 -38 -143 -185 -193 -44 -16 -80
-31 -80 -35 0 -3 55 -14 123 -25 150 -25 268 -25 320 -3 l37 17 0 86 0 86 37
16 c44 18 118 13 141 -10 14 -15 13 -20 -8 -60 -31 -59 -23 -82 55 -168 89
-96 89 -118 1 -272 -21 -38 -42 -65 -46 -60 -22 23 -110 167 -110 180 0 34
-31 72 -68 82 -20 6 -130 11 -244 11 l-206 0 -45 53 c-111 132 -204 321 -241
490 -6 24 -10 27 -49 26 -23 0 -51 -4 -62 -8 -16 -6 -28 0 -56 33 -21 23 -63
55 -95 71 -53 26 -69 29 -154 29 -77 0 -107 -4 -155 -23 -76 -31 -167 -119
-186 -179 -7 -23 -14 -42 -17 -42 -3 0 -21 10 -41 23 -28 17 -51 22 -107 22
-61 0 -77 -4 -120 -30 -69 -43 -109 -111 -108 -184 0 -31 6 -67 13 -80 11 -20
10 -26 -7 -44 -11 -12 -23 -38 -27 -57 -5 -31 -13 -39 -55 -58 -92 -42 -128
-173 -76 -277 l25 -48 -24 -29 c-54 -64 -57 -170 -8 -261 74 -137 243 -155
363 -38 26 25 52 55 57 65 10 18 15 19 66 7 78 -17 156 -67 194 -124 42 -62
53 -104 53 -199 0 -93 4 -90 -173 -138 -114 -32 -216 -81 -225 -109 -4 -11 17
-13 124 -7 95 5 141 3 174 -6 40 -12 45 -17 55 -56 5 -23 17 -48 26 -57 14
-14 19 -11 58 35 40 47 71 64 71 38 0 -23 40 -93 59 -105 18 -11 23 -8 49 45
16 31 36 58 45 60 9 2 45 -17 80 -42 35 -25 76 -50 91 -56 l27 -10 -21 -30
c-12 -17 -42 -47 -68 -68 -89 -72 -102 -88 -102 -127 0 -75 58 -145 120 -145
14 0 45 14 70 30 25 17 68 37 96 45 45 14 54 14 80 0 39 -20 80 -19 133 5 24
11 57 20 75 20 17 1 48 7 68 14 l36 13 17 -43 c29 -76 123 -149 243 -189 61
-19 59 -11 20 -137 -25 -81 -78 -151 -100 -130 -17 17 -16 101 4 179 18 71 11
79 -37 41 -44 -34 -56 -79 -65 -239 -10 -181 -31 -230 -129 -298 -64 -46 -175
-27 -203 34 -19 43 6 80 96 140 92 61 142 125 175 221 23 68 39 194 25 194 -5
0 -33 -16 -62 -35 -198 -134 -295 -159 -447 -115 -252 72 -493 -69 -560 -327
-19 -74 -19 -213 0 -288 52 -196 211 -331 434 -365 52 -9 115 -7 267 5 109 8
226 20 259 26 85 15 204 55 250 84 l40 24 -120 1 c-124 0 -177 9 -210 35 -20
15 -20 15 3 35 32 26 105 47 227 65 263 39 309 53 384 121 53 47 108 144 135
236 l14 47 -77 -53 c-42 -30 -99 -65 -126 -79 -53 -26 -163 -62 -171 -55 -5 5
64 88 176 211 128 140 180 254 180 392 l0 61 36 -4 c34 -4 41 0 102 64 50 52
64 63 59 44 -34 -140 -34 -304 0 -380 47 -107 139 -151 405 -195 28 -4 42 -14
57 -39 25 -40 26 -90 6 -231 -31 -213 -13 -320 59 -350 20 -8 46 -15 60 -15
21 0 25 6 31 40 4 22 4 72 1 112 -6 74 7 138 30 145 11 4 36 -74 65 -204 l12
-53 53 0 53 0 5 42 c3 24 7 68 10 99 6 62 24 119 36 119 5 0 16 -7 25 -17 14
-14 16 -29 10 -106 l-7 -90 28 7 c78 20 123 69 132 146 l7 52 25 -20 c24 -20
25 -25 25 -139 0 -65 4 -124 8 -130 10 -16 45 -16 102 -2 l44 11 6 64 c4 35 2
138 -5 228 -12 175 -7 270 17 298 20 23 87 43 203 63 137 23 169 35 216 80 61
58 78 123 71 274 -3 81 -11 137 -27 186 -40 126 -122 270 -202 355 -64 68 -58
67 -150 21 -47 -23 -105 -43 -133 -47 l-50 -5 57 31 c58 33 148 112 148 130 0
18 -104 79 -186 109 -84 31 -222 61 -279 61 -30 0 -34 4 -52 53 l-20 52 21 4
c40 6 201 -21 290 -50 109 -36 231 -98 315 -162 60 -46 66 -48 90 -35 14 7 59
45 99 84 90 89 146 200 164 321 22 152 -24 276 -186 498 -217 297 -252 392
-227 616 6 57 14 117 17 132 6 27 4 28 -15 18 -34 -18 -210 -200 -293 -302
-164 -202 -309 -445 -357 -599 -23 -72 -41 -174 -41 -235 -1 -38 -4 -34 -65
86 -80 158 -99 228 -91 328 6 66 5 77 -16 107 -42 62 -113 87 -175 63 -37 -15
-168 -12 -273 5 -47 8 -80 14 -75 15 6 1 -5 10 -23 21 -95 58 -105 199 -16
236 20 8 40 14 45 12 5 -2 28 -32 51 -68 50 -75 80 -92 131 -71 18 8 49 16 69
18 31 4 41 12 63 49 15 25 46 69 71 99 l44 55 -43 0 c-59 0 -127 36 -151 81
-22 40 -18 73 13 106 18 19 28 21 95 16 92 -7 122 0 130 30 10 41 45 76 83 83
27 5 55 -1 120 -26 46 -17 91 -29 98 -26 19 7 -93 200 -151 261 -45 46 -100
71 -139 61 -14 -4 -42 -30 -64 -60 -56 -76 -95 -80 -143 -14 -39 53 -41 65 -7
78 40 17 86 71 100 120 10 31 10 52 0 95 -7 30 -10 59 -6 65 12 19 81 49 166
70 46 12 90 25 97 29 26 15 -260 54 -360 49 -132 -6 -138 -10 -138 -107 0 -59
-4 -82 -16 -91 -24 -21 -101 -16 -132 7 -28 21 -28 22 -16 104 7 45 -8 74 -75
153 -28 33 -54 74 -57 92 -7 40 19 103 77 179 23 30 40 57 38 60 -2 2 -54 -29
-114 -69z m128 -575 c36 -14 80 -43 117 -78 228 -210 172 -582 -108 -720 -73
-37 -80 -38 -181 -38 -86 0 -117 4 -166 23 -175 66 -279 221 -277 411 1 196
106 347 282 409 87 30 245 27 333 -7z m-1695 -1146 c2 -2 2 -23 0 -46 l-3 -44
-27 29 c-16 16 -28 40 -28 54 0 21 3 23 27 17 16 -4 29 -8 31 -10z m335 -27
c33 -16 36 -22 31 -46 -11 -46 -33 -80 -67 -106 -19 -15 -37 -26 -40 -26 -4 0
-7 48 -7 106 0 119 -3 116 83 72z m1563 -75 c71 -4 135 -1 176 7 93 17 108 8
94 -59 -19 -94 10 -199 110 -401 151 -303 224 -476 264 -626 26 -99 47 -125
164 -207 49 -34 91 -66 93 -72 1 -5 -1 -16 -6 -24 -8 -13 -19 -12 -81 3 -223
53 -468 43 -603 -26 l-40 -20 -20 21 -21 21 71 67 c88 84 107 119 101 187 -5
55 -67 208 -187 458 -82 171 -99 188 -162 168 -39 -13 -40 -13 -79 25 -22 22
-40 45 -40 53 0 7 17 34 38 60 56 68 102 148 102 178 0 43 -18 62 -100 110
-44 26 -80 49 -80 51 0 2 7 14 16 27 13 21 19 23 47 15 18 -6 82 -13 143 -16z
m-808 -19 c46 -5 54 -9 63 -32 6 -15 45 -81 88 -147 43 -66 107 -169 142 -229
35 -59 78 -125 96 -145 l31 -36 49 48 c27 26 58 47 70 47 12 0 35 -18 58 -45
l37 -46 -24 -37 c-68 -103 -74 -201 -22 -347 43 -120 94 -276 94 -286 0 -4
-21 -18 -47 -30 -29 -14 -88 -63 -148 -123 -97 -97 -100 -98 -125 -85 -23 14
-25 21 -31 115 -13 219 -139 604 -261 799 -55 88 -134 180 -171 200 l-36 19
-27 -24 c-15 -14 -35 -44 -46 -67 -10 -23 -22 -44 -27 -47 -9 -6 -131 50 -131
60 0 3 16 48 35 99 42 112 58 181 50 213 -6 26 -63 55 -127 67 l-37 7 25 32
25 31 172 -3 c95 -1 196 -5 225 -8z m-1288 -30 c39 -38 16 -48 -68 -27 -60 14
-69 19 -60 31 31 37 87 35 128 -4z m1790 -28 c0 -17 31 -37 92 -60 26 -10 57
-25 69 -35 l22 -17 -28 -45 c-15 -24 -45 -63 -66 -86 -21 -23 -41 -53 -44 -66
-5 -17 -16 -27 -37 -31 -16 -3 -41 -15 -55 -26 -31 -24 -22 -34 -116 128 l-65
111 66 49 c139 102 162 113 162 78z m-1103 -148 c13 -12 23 -25 23 -28 0 -4
-30 -15 -67 -25 -38 -10 -88 -27 -112 -37 -50 -21 -60 -19 -31 7 30 27 143
104 154 104 6 1 20 -9 33 -21z m2850 -66 c33 -55 63 -153 63 -203 0 -50 -22
-104 -48 -118 -38 -20 -101 -13 -127 14 -36 35 -33 86 11 192 24 59 37 105 38
140 1 49 2 51 20 35 10 -9 29 -36 43 -60z m-3582 37 c49 -14 120 -84 130 -129
4 -17 4 -34 1 -37 -3 -3 -41 22 -86 56 -72 54 -150 90 -199 91 -9 1 -2 7 14
15 37 17 88 18 140 4z m874 -156 c-5 -15 -9 -39 -8 -53 2 -15 -6 -35 -20 -50
-26 -29 -86 -171 -137 -325 -20 -60 -38 -112 -40 -113 -1 -2 -27 3 -56 12 -87
25 -121 75 -120 176 0 72 46 263 69 285 26 27 235 93 295 94 26 1 27 -1 17
-26z m396 -168 c58 -77 144 -245 184 -358 32 -92 83 -278 78 -284 -2 -2 -18
18 -36 43 -18 25 -35 43 -37 41 -2 -2 15 -51 38 -108 43 -107 56 -180 43 -245
-6 -37 -7 -36 -36 52 -17 49 -42 109 -56 134 -70 121 -180 229 -296 291 l-59
31 -54 -53 c-30 -29 -54 -49 -54 -43 0 9 67 183 130 338 18 44 30 89 27 103
-3 17 5 33 29 57 19 19 34 42 34 51 0 27 17 14 65 -50z m-280 -29 c30 -14 55
-30 55 -36 0 -6 -14 -43 -31 -83 -100 -234 -139 -355 -139 -432 0 -69 21 -113
69 -141 55 -33 40 -44 -59 -44 -118 0 -227 -23 -319 -66 -57 -27 -76 -32 -83
-22 -12 20 -10 24 33 54 103 71 168 181 258 434 84 236 135 360 148 360 7 0
37 -11 68 -24z m1181 -108 c93 -184 124 -261 112 -275 -16 -20 -4 -114 20
-164 l22 -43 -27 -28 c-15 -15 -30 -28 -34 -28 -7 0 -33 90 -47 164 l-7 39
-58 -53 c-32 -29 -59 -51 -60 -49 -2 2 -26 63 -55 135 -69 175 -70 255 -2 341
11 14 20 34 20 44 0 16 7 19 52 28 4 0 33 -50 64 -111z m-1574 -414 c-11 -23
-18 -31 -20 -21 -4 19 15 57 28 57 5 0 2 -16 -8 -36z m465 -15 c59 -22 110
-89 124 -164 8 -42 -7 -135 -21 -135 -17 0 -79 83 -109 145 -16 35 -42 71 -56
81 -30 20 -35 70 -7 77 29 8 40 7 69 -4z m1216 -374 c21 -8 48 -12 66 -9 62
13 206 -98 251 -193 29 -62 25 -129 -10 -155 -44 -32 -127 -48 -255 -48 -171
1 -269 26 -296 78 -22 41 -16 120 14 178 46 89 91 132 167 155 14 4 26 8 26 8
1 1 18 -6 37 -14z m1104 -6 c88 -43 163 -157 163 -250 0 -141 -100 -171 -447
-137 -139 13 -133 9 -133 113 0 117 88 236 206 279 60 22 160 20 211 -5z
m-656 -351 c1 -2 4 -70 8 -153 6 -136 21 -208 38 -191 12 12 32 144 33 216 2
115 10 124 47 48 47 -96 66 -180 61 -266 -3 -40 -9 -77 -14 -82 -5 -5 -27 -5
-54 1 -25 6 -80 9 -122 7 -71 -4 -77 -3 -82 16 -29 124 -7 297 50 384 12 18
31 29 35 20z"/>
<path d="M2451 4275 c-124 -35 -221 -117 -262 -223 -18 -44 -23 -78 -23 -152
-1 -88 2 -101 31 -161 61 -123 176 -207 316 -229 176 -28 333 53 410 209 30
63 32 72 32 181 0 106 -2 120 -28 172 -39 79 -104 143 -183 180 -81 38 -205
47 -293 23z"/>
<path d="M835 1740 c-3 -5 1 -10 10 -10 9 0 13 5 10 10 -3 6 -8 10 -10 10 -2
0 -7 -4 -10 -10z"/>
</g>
</svg>
